<svg xmlns="http://www.w3.org/2000/svg" width="760" height="440">
<rect width="100%" height="100%" fill="white"/>
<text x="380.0" y="24" text-anchor="middle" font-family="sans-serif" font-size="17">Simplified allocation churn</text>
<line x1="78" y1="376" x2="735" y2="376" stroke="#222"/>
<line x1="78" y1="48" x2="78" y2="376" stroke="#222"/>
<text x="78.0" y="396" text-anchor="middle" font-family="sans-serif" font-size="11">0.25</text>
<text x="69" y="380.0" text-anchor="end" font-family="sans-serif" font-size="11">0</text>
<line x1="78" y1="376.0" x2="735" y2="376.0" stroke="#ddd"/>
<text x="209.4" y="396" text-anchor="middle" font-family="sans-serif" font-size="11">0.35</text>
<text x="69" y="314.4" text-anchor="end" font-family="sans-serif" font-size="11">0.00131</text>
<line x1="78" y1="310.4" x2="735" y2="310.4" stroke="#ddd"/>
<text x="340.8" y="396" text-anchor="middle" font-family="sans-serif" font-size="11">0.45</text>
<text x="69" y="248.8" text-anchor="end" font-family="sans-serif" font-size="11">0.00263</text>
<line x1="78" y1="244.8" x2="735" y2="244.8" stroke="#ddd"/>
<text x="472.2" y="396" text-anchor="middle" font-family="sans-serif" font-size="11">0.55</text>
<text x="69" y="183.2" text-anchor="end" font-family="sans-serif" font-size="11">0.00394</text>
<line x1="78" y1="179.2" x2="735" y2="179.2" stroke="#ddd"/>
<text x="603.6" y="396" text-anchor="middle" font-family="sans-serif" font-size="11">0.65</text>
<text x="69" y="117.6" text-anchor="end" font-family="sans-serif" font-size="11">0.00526</text>
<line x1="78" y1="113.6" x2="735" y2="113.6" stroke="#ddd"/>
<text x="735.0" y="396" text-anchor="middle" font-family="sans-serif" font-size="11">0.75</text>
<text x="69" y="52.0" text-anchor="end" font-family="sans-serif" font-size="11">0.00657</text>
<line x1="78" y1="48.0" x2="735" y2="48.0" stroke="#ddd"/>
<polyline points="78.0,60.6 406.5,193.2 735.0,268.1" fill="none" stroke="#2563eb" stroke-width="2"/>
<circle cx="78.0" cy="60.6" r="3" fill="#2563eb"/>
<circle cx="406.5" cy="193.2" r="3" fill="#2563eb"/>
<circle cx="735.0" cy="268.1" r="3" fill="#2563eb"/>
<text x="730" y="48" text-anchor="end" font-family="sans-serif" font-size="11" fill="#2563eb">row churn</text>
<text x="406.5" y="426" text-anchor="middle" font-family="sans-serif" font-size="12">fraction of cached rows</text>
<text x="18" y="220.0" text-anchor="middle" transform="rotate(-90 18 220.0)" font-family="sans-serif" font-size="12">fraction of formats changed</text>
</svg>
